<svg id="Capa_1" data-name="Capa 1" xmlns="http://www.w3.org/2000/svg" viewBox="0 0 100.67 115.5"><defs><style>.cls-1{fill:#d3d3d3;}.cls-2{fill:#9b9b9b;}.cls-3{fill:#757575;}</style></defs><title>Mesa de trabajo 1_1</title><polygon class="cls-1" points="6 30.33 6 82.67 51.67 56.5 51.67 44.83 16.67 63.83 16.83 56.5 51.67 36.67 51.67 26.67 16.5 44.17 16.5 36.17 51.67 16.5 51.67 4.83 6 30.33"/><polygon class="cls-2" points="98 41.67 98 31.17 51.67 4.83 51.67 16.5 98 41.67"/><polygon class="cls-2" points="98 61.96 98 51.46 51.67 26.88 51.67 36.79 98 61.96"/><polygon class="cls-2" points="98 82.67 98 72.17 51.67 44.83 51.67 56.5 98 82.67"/><polygon class="cls-3" points="7 87.33 16.8 80.81 49.67 100.33 57.67 94.87 27.62 73.88 51.67 59.33 94.67 84.67 86.83 90.83 53.1 71.33 46.67 75.83 77.83 95.5 52.76 111.92 7 87.33"/></svg>